<svg width="1520" height="774" viewBox="0 0 1520 774" fill="none" xmlns="http://www.w3.org/2000/svg">
<path d="M40 42C40 40.8954 40.8954 40 42 40H1478C1479.1 40 1480 40.8954 1480 42V732C1480 733.105 1479.1 734 1478 734H42C40.8955 734 40 733.105 40 732V42Z" fill="white"/>
<path d="M42 41H1478V39H42V41ZM1479 42V732H1481V42H1479ZM1478 733H42V735H1478V733ZM41 732V42H39V732H41ZM42 733C41.4477 733 41 732.552 41 732H39C39 733.657 40.3432 735 42 735V733ZM1479 732C1479 732.552 1478.55 733 1478 733V735C1479.66 735 1481 733.657 1481 732H1479ZM1478 41C1478.55 41 1479 41.4477 1479 42H1481C1481 40.3431 1479.66 39 1478 39V41ZM42 39C40.3432 39 39 40.3431 39 42H41C41 41.4477 41.4477 41 42 41V39Z" fill="black" fill-opacity="0.1"/>
</svg>
