<svg width="1520" height="251" viewBox="0 0 1520 251" fill="none" xmlns="http://www.w3.org/2000/svg">
<path d="M40 42C40 40.8954 40.8954 40 42 40H1478C1479.1 40 1480 40.8954 1480 42V209C1480 210.105 1479.1 211 1478 211H42C40.8955 211 40 210.105 40 209V42Z" fill="white"/>
<path d="M42 41H1478V39H42V41ZM1479 42V209H1481V42H1479ZM1478 210H42V212H1478V210ZM41 209V42H39V209H41ZM42 210C41.4477 210 41 209.552 41 209H39C39 210.657 40.3432 212 42 212V210ZM1479 209C1479 209.552 1478.55 210 1478 210V212C1479.66 212 1481 210.657 1481 209H1479ZM1478 41C1478.55 41 1479 41.4477 1479 42H1481C1481 40.3431 1479.66 39 1478 39V41ZM42 39C40.3431 39 39 40.3431 39 42H41C41 41.4477 41.4477 41 42 41V39Z" fill="black" fill-opacity="0.1"/>
</svg>
