<svg width="61" height="48" viewBox="0 0 61 48" fill="none" xmlns="http://www.w3.org/2000/svg">
<path d="M0 5.61259V3.98913C0 2.93992 0.398779 1.93368 1.10861 1.19178C1.81844 0.449877 2.78118 0.0330811 3.78503 0.0330811L56.7755 0.0330811C57.7793 0.0330811 58.7421 0.449877 59.4519 1.19178C60.1617 1.93368 60.5605 2.93992 60.5605 3.98913V5.61259L30.2803 25.3928L0 5.61259ZM31.2833 29.4032C30.9824 29.5995 30.6349 29.7036 30.2803 29.7036C29.9256 29.7036 29.5781 29.5995 29.2772 29.4032L0 10.2778V43.5496C0 44.5988 0.398779 45.605 1.10861 46.3469C1.81844 47.0888 2.78118 47.5056 3.78503 47.5056H56.7755C57.7793 47.5056 58.7421 47.0888 59.4519 46.3469C60.1617 45.605 60.5605 44.5988 60.5605 43.5496V10.2778L31.2833 29.4032Z" fill="black"/>
</svg>
