<svg width="1520" height="599" viewBox="0 0 1520 599" fill="none" xmlns="http://www.w3.org/2000/svg">
<path d="M40 42C40 40.8954 40.8954 40 42 40H1479C1480.1 40 1481 40.8954 1481 42V557C1481 558.105 1480.1 559 1479 559H42C40.8955 559 40 558.105 40 557V42Z" fill="white"/>
<path d="M42 41H1479V39H42V41ZM1480 42V557H1482V42H1480ZM1479 558H42V560H1479V558ZM41 557V42H39V557H41ZM42 558C41.4477 558 41 557.552 41 557H39C39 558.657 40.3432 560 42 560V558ZM1480 557C1480 557.552 1479.55 558 1479 558V560C1480.66 560 1482 558.657 1482 557H1480ZM1479 41C1479.55 41 1480 41.4477 1480 42H1482C1482 40.3431 1480.66 39 1479 39V41ZM42 39C40.3431 39 39 40.3431 39 42H41C41 41.4477 41.4477 41 42 41V39Z" fill="black" fill-opacity="0.1"/>
</svg>
