<svg width="1519" height="848" viewBox="0 0 1519 848" fill="none" xmlns="http://www.w3.org/2000/svg">
<path d="M40 42C40 40.8954 40.8954 40 42 40H1478C1479.1 40 1480 40.8954 1480 42V806C1480 807.105 1479.1 808 1478 808H42C40.8955 808 40 807.105 40 806V42Z" fill="white"/>
<path d="M42 41H1478V39H42V41ZM1479 42V806H1481V42H1479ZM1478 807H42V809H1478V807ZM41 806V42H39V806H41ZM42 807C41.4477 807 41 806.552 41 806H39C39 807.657 40.3432 809 42 809V807ZM1479 806C1479 806.552 1478.55 807 1478 807V809C1479.66 809 1481 807.657 1481 806H1479ZM1478 41C1478.55 41 1479 41.4477 1479 42H1481C1481 40.3431 1479.66 39 1478 39V41ZM42 39C40.3431 39 39 40.3432 39 42H41C41 41.4477 41.4477 41 42 41V39Z" fill="black" fill-opacity="0.1"/>
</svg>
