<svg width="61" height="64" viewBox="0 0 61 64" fill="none" xmlns="http://www.w3.org/2000/svg">
<path d="M56.0825 0.242144H4.47807C3.89798 0.233724 3.322 0.344819 2.783 0.569083C2.244 0.793348 1.75255 1.12639 1.33671 1.54919C0.920872 1.97199 0.588794 2.47626 0.359439 3.03322C0.130084 3.59017 0.00794596 4.18889 0 4.79518V59.3679C0.00794596 59.9742 0.130084 60.5729 0.359439 61.1298C0.588794 61.6868 0.920872 62.1911 1.33671 62.6139C1.75255 63.0367 2.244 63.3697 2.783 63.594C3.322 63.8182 3.89798 63.9293 4.47807 63.9209H56.0825C56.6625 63.9293 57.2385 63.8182 57.7775 63.594C58.3165 63.3697 58.808 63.0367 59.2238 62.6139C59.6396 62.1911 59.9717 61.6868 60.2011 61.1298C60.4304 60.5729 60.5526 59.9742 60.5605 59.3679V4.79518C60.5526 4.18889 60.4304 3.59017 60.2011 3.03322C59.9717 2.47626 59.6396 1.97199 59.2238 1.54919C58.808 1.12639 58.3165 0.793348 57.7775 0.569083C57.2385 0.344819 56.6625 0.233724 56.0825 0.242144ZM18.3692 53.5413H9.2303V24.8858H18.3692V53.5413ZM13.7998 20.8741C12.5394 20.8741 11.3306 20.3508 10.4394 19.4193C9.5482 18.4878 9.04752 17.2244 9.04752 15.9071C9.04752 14.5898 9.5482 13.3264 10.4394 12.395C11.3306 11.4635 12.5394 10.9402 13.7998 10.9402C14.469 10.8609 15.1468 10.9302 15.7886 11.1436C16.4305 11.357 17.0219 11.7097 17.5243 12.1786C18.0267 12.6475 18.4287 13.222 18.7039 13.8646C18.9791 14.5071 19.1214 15.2031 19.1214 15.9071C19.1214 16.6111 18.9791 17.3071 18.7039 17.9497C18.4287 18.5922 18.0267 19.1667 17.5243 19.6356C17.0219 20.1045 16.4305 20.4573 15.7886 20.6707C15.1468 20.8841 14.469 20.9534 13.7998 20.8741ZM51.3302 53.5413H42.1913V38.1629C42.1913 34.3103 40.8814 31.795 37.5609 31.795C36.5333 31.8028 35.5327 32.1397 34.6939 32.7603C33.855 33.3808 33.2184 34.2551 32.8696 35.2655C32.6312 36.0138 32.5279 36.802 32.565 37.5897V53.5094H23.4261C23.4261 53.5094 23.4261 27.4648 23.4261 24.854H32.565V28.8976C33.3952 27.3919 34.6027 26.1515 36.0574 25.3099C37.5121 24.4684 39.1589 24.0575 40.8205 24.1217C46.9131 24.1217 51.3302 28.229 51.3302 37.0485V53.5413Z" fill="black"/>
</svg>
