<svg width="64" height="66" viewBox="0 0 64 66" fill="none" xmlns="http://www.w3.org/2000/svg">
<path d="M31.542 0.945068C24.0523 0.945393 16.8071 3.73116 11.1027 8.80391C5.39839 13.8767 1.60715 20.9054 0.407397 28.6324C-0.792357 36.3594 0.677663 44.2805 4.55442 50.9783C8.43119 57.6762 14.4617 62.7137 21.5669 65.1895C23.144 65.4781 23.7355 64.4891 23.7355 63.6236C23.7355 62.8407 23.696 60.2445 23.696 57.4835C15.7711 59.0082 13.7208 55.4644 13.09 53.61C12.39 51.8065 11.2804 50.2082 9.85694 48.9533C8.75297 48.3352 7.17588 46.8105 9.81748 46.7693C10.8262 46.8837 11.7936 47.2505 12.6378 47.8388C13.482 48.427 14.1781 49.2192 14.6671 50.1483C15.0985 50.9583 15.6786 51.6714 16.3741 52.2467C17.0696 52.8219 17.8669 53.2481 18.7203 53.5008C19.5737 53.7534 20.4664 53.8276 21.3473 53.719C22.2281 53.6105 23.0799 53.3213 23.8536 52.8681C23.9902 51.1921 24.7048 49.6251 25.8645 48.4589C18.8464 47.6347 11.5129 44.7912 11.5129 32.1814C11.4686 28.905 12.6253 25.735 14.7459 23.3215C13.7816 20.4739 13.8945 17.3489 15.0614 14.5853C15.0614 14.5853 17.7029 13.7199 23.7354 17.9644C28.8966 16.4808 34.3452 16.4808 39.5064 17.9644C45.5387 13.6787 48.1804 14.5853 48.1804 14.5853C49.3474 17.3488 49.4603 20.4739 48.4958 23.3215C50.6228 25.7309 51.7806 28.9036 51.7289 32.1814C51.7289 44.8324 44.3559 47.6347 37.3379 48.4589C38.0906 49.2563 38.6703 50.2137 39.0377 51.2661C39.4051 52.3184 39.5515 53.4411 39.4669 54.5578C39.4669 58.9672 39.4275 62.511 39.4275 63.6237C39.4275 64.4892 40.0189 65.5193 41.596 65.1897C48.6887 62.6936 54.7019 57.6443 58.5621 50.943C62.4224 44.2418 63.8784 36.3247 62.6704 28.6052C61.4623 20.8857 57.6688 13.8661 51.9669 8.7995C46.265 3.73293 39.026 0.949139 31.542 0.945068Z" fill="black"/>
</svg>
