<svg width="64" height="67" viewBox="0 0 64 67" fill="none" xmlns="http://www.w3.org/2000/svg">
<path d="M63.3361 15.2637C63.3006 13.8414 63.1953 12.4219 63.0206 11.0109C62.7851 9.77507 62.3926 8.57766 61.8536 7.45048C61.2898 6.22775 60.5327 5.11321 59.6141 4.15378C58.6871 3.205 57.6226 2.41507 56.4599 1.81312C55.38 1.26074 54.2344 0.861606 53.0534 0.626309C51.7162 0.416966 50.3678 0.295848 49.016 0.263672H14.6038C13.243 0.300715 11.8849 0.41075 10.5349 0.593342C9.35244 0.839502 8.20678 1.24973 7.12834 1.81312C5.95846 2.40236 4.8921 3.19369 3.97415 4.15378C3.06638 5.12272 2.3106 6.2353 1.73467 7.45048C1.20617 8.57915 0.824284 9.77656 0.599158 11.0109C0.398865 12.4085 0.282982 13.8179 0.252197 15.2307C0.252197 15.8571 0.252197 16.7472 0.252197 17.0109V49.4505C0.252197 49.8131 0.252197 50.6043 0.252197 51.1977C0.287639 52.62 0.392917 54.0395 0.567616 55.4505C0.803135 56.6863 1.19563 57.8837 1.73467 59.0109C2.29844 60.2336 3.05556 61.3482 3.97415 62.3076C4.9012 63.2564 5.96568 64.0463 7.12834 64.6483C8.20822 65.2007 9.35386 65.5998 10.5349 65.8351C11.872 66.0444 13.2205 66.1656 14.5722 66.1977H48.9845C50.3453 66.1607 51.7034 66.0507 53.0534 65.8681C54.2358 65.6219 55.3815 65.2117 56.4599 64.6483C57.6298 64.059 58.6962 63.2677 59.6141 62.3076C60.5219 61.3387 61.2777 60.2261 61.8536 59.0109C62.3821 57.8822 62.764 56.6848 62.9891 55.4505C63.1894 54.0529 63.3053 52.6435 63.3361 51.2307C63.3361 50.6043 63.3361 49.8131 63.3361 49.4505V17.0109C63.3361 16.7472 63.3361 15.8571 63.3361 15.2637ZM32.5196 56.3076C28.7316 56.2881 25.0099 55.2674 21.7007 53.3406L9.71478 56.6373L12.869 44.3736C10.8349 40.8014 9.74627 36.7282 9.71478 32.5714C9.72734 27.8997 11.0623 23.3364 13.5514 19.4561C16.0406 15.5759 19.5726 12.5522 23.7028 10.766C27.8329 8.97983 32.3764 8.51094 36.761 9.41841C41.1456 10.3259 45.1752 12.5691 48.3424 15.8657C51.5095 19.1622 53.6726 23.3645 54.559 27.9434C55.4455 32.5223 55.0158 37.273 53.324 41.5971C51.6322 45.9212 48.754 49.6254 45.0518 52.2431C41.3497 54.8609 36.9892 56.2751 32.5196 56.3076ZM32.5196 13.0219C29.1755 13.0619 25.9014 14.0274 23.0304 15.8199C20.1594 17.6125 17.7942 20.1683 16.1755 23.2269C14.5568 26.2856 13.7425 29.7379 13.8155 33.2324C13.8885 36.727 14.8461 40.1389 16.5909 43.1208L17.0325 43.879L15.14 51.0988L22.3316 49.0549L23.0255 49.4834C25.8944 51.2497 29.1585 52.1935 32.4881 52.2197C37.5073 52.2197 42.321 50.1357 45.8702 46.4262C49.4193 42.7167 51.4132 37.6855 51.4132 32.4395C51.4132 27.1935 49.4193 22.1623 45.8702 18.4528C42.321 14.7433 37.5073 12.6593 32.4881 12.6593L32.5196 13.0219ZM43.5593 41.1098C43.1461 41.83 42.593 42.4516 41.9355 42.9343C41.2781 43.417 40.5311 43.7501 39.7427 43.912C38.5647 44.1371 37.352 44.0578 36.21 43.6812C35.1355 43.3301 34.0822 42.9118 33.0558 42.4285C29.1564 40.3834 25.8309 37.3166 23.404 33.5274C22.0852 31.7718 21.285 29.6523 21.1014 27.4285C21.0826 26.5047 21.2498 25.5871 21.5922 24.7352C21.9345 23.8834 22.4443 23.1162 23.0886 22.4834C23.2783 22.2586 23.5111 22.0778 23.7719 21.9529C24.0327 21.828 24.3157 21.7616 24.6026 21.7582H25.4857C25.8327 21.7582 26.3058 21.7582 26.7474 22.7802C27.189 23.8021 28.3561 26.8681 28.5138 27.1648C28.5913 27.3229 28.6317 27.4981 28.6317 27.6758C28.6317 27.8534 28.5913 28.0286 28.5138 28.1867C28.3743 28.545 28.1828 28.8786 27.946 29.1758C27.6621 29.5384 27.3467 29.967 27.0944 30.2307C26.842 30.4944 26.5266 30.8241 26.842 31.4175C27.7003 32.9313 28.7626 34.3081 29.9962 35.5054C31.3397 36.7462 32.8757 37.7384 34.5383 38.4395C35.106 38.7362 35.453 38.7032 35.7684 38.4395C36.0838 38.1758 37.1878 36.7252 37.5663 36.1318C37.9448 35.5384 38.3233 35.6373 38.828 35.8351C39.3327 36.0329 42.1399 37.4505 42.7076 37.7472C43.2754 38.0439 43.6224 38.1758 43.7801 38.4395C43.9169 39.3023 43.8409 40.1873 43.5593 41.0109V41.1098Z" fill="black"/>
</svg>
